<?xml version="1.0" standalone="no"?>
<!DOCTYPE svg PUBLIC "-//W3C//DTD SVG 20010904//EN"
 "http://www.w3.org/TR/2001/REC-SVG-20010904/DTD/svg10.dtd">
<svg version="1.0" xmlns="http://www.w3.org/2000/svg"
 width="512.000000pt" height="512.000000pt" viewBox="0 0 512.000000 512.000000"
 preserveAspectRatio="xMidYMid meet">
<metadata>
Created by potrace 1.11, written by Peter Selinger 2001-2013
</metadata>
<g transform="translate(0.000000,512.000000) scale(0.100000,-0.100000)"
fill="#000000" stroke="none">
<path d="M3425 5096 c-246 -63 -448 -178 -630 -361 -201 -201 -313 -406 -381
-695 -15 -66 -18 -147 -21 -692 l-4 -617 -617 -4 c-676 -4 -659 -3 -857 -68
-201 -67 -369 -173 -530 -334 -244 -244 -385 -553 -385 -842 l0 -113 149 0
c107 0 151 3 158 13 6 6 15 57 22 112 6 55 15 103 20 108 4 4 294 -275 644
-620 550 -543 633 -629 616 -635 -12 -5 -64 -13 -118 -20 -53 -6 -102 -15
-108 -21 -10 -7 -13 -51 -13 -158 l0 -149 113 0 c263 0 547 119 779 327 231
206 372 445 441 748 19 84 21 129 24 702 l4 613 557 0 c343 0 592 4 647 11
180 22 351 79 508 169 396 226 677 669 677 1066 l0 114 -149 0 c-107 0 -151
-3 -158 -12 -6 -7 -15 -58 -22 -113 -6 -55 -15 -103 -20 -108 -4 -4 -294 275
-644 620 -548 541 -633 629 -615 636 11 4 63 12 117 19 53 6 102 15 109 21 9
7 12 51 12 158 l0 149 -117 -1 c-88 0 -141 -6 -208 -23z m-70 -654 c99 -98
427 -422 729 -720 l549 -542 -42 -55 c-56 -74 -151 -167 -167 -163 -16 4
-1468 1437 -1472 1454 -6 22 188 204 217 204 3 0 86 -80 186 -178z m135 -1023
c349 -345 632 -630 629 -633 -16 -16 -177 -48 -266 -53 l-102 -6 -511 503
-510 503 0 76 c0 85 12 168 35 248 l16 54 37 -32 c20 -18 323 -315 672 -660z
m-226 -668 l19 -21 -276 0 -277 0 0 271 0 271 258 -250 c141 -137 266 -259
276 -271z m-1383 -862 l509 -502 0 -81 c0 -79 -29 -248 -48 -281 -8 -15 -119
91 -676 641 -366 362 -666 661 -666 665 0 7 135 45 185 52 17 2 65 5 109 6
l78 1 509 -501z m509 230 l0 -271 -270 262 c-149 145 -273 267 -276 272 -3 4
119 8 270 8 l276 0 0 -271z m-697 -937 c262 -260 477 -476 477 -481 0 -14
-132 -143 -179 -176 l-42 -28 -192 189 c-106 105 -434 429 -730 721 l-539 532
33 48 c18 26 64 79 102 117 l69 69 261 -260 c144 -142 477 -471 740 -731z"/>
</g>
</svg>
